<?xml version="1.0" encoding="utf-8"?>
<!-- Generator: Adobe Illustrator 26.2.1, SVG Export Plug-In . SVG Version: 6.00 Build 0)  -->
<svg version="1.1" id="Слой_1" xmlns="http://www.w3.org/2000/svg" xmlns:xlink="http://www.w3.org/1999/xlink" x="0px" y="0px"
	 viewBox="0 0 50 50" style="enable-background:new 0 0 50 50;" xml:space="preserve">
<style type="text/css">
	.st0{fill:#3E70DD;}
</style>
<path class="st0" d="M49.09,23.53L38.32,4.94l-0.88-1.51H12.51l-0.88,1.51L0.88,23.53L0,25.04l0.88,1.51l10.74,18.6l0.88,1.51h24.96
	l0.88-1.51l10.77-18.6L50,25.04L49.09,23.53z M16.21,20.94l-4.1,4.1l4.1,4.1v6.87L5.23,25.04l11-11v6.89H16.21z M24.06,38.38
	l-5.13-1.59l7.8-25.11l5.13,1.61C31.86,13.29,24.06,38.38,24.06,38.38z M33.77,36.04v-6.87l4.1-4.13l-4.1-4.1v-6.89l10.97,11
	L33.77,36.04z"/>
</svg>
