<?xml version="1.0" encoding="utf-8"?>
<!-- Generator: Adobe Illustrator 26.2.1, SVG Export Plug-In . SVG Version: 6.00 Build 0)  -->
<svg version="1.1" id="Слой_1" xmlns="http://www.w3.org/2000/svg" xmlns:xlink="http://www.w3.org/1999/xlink" x="0px" y="0px"
	 viewBox="0 0 50 50" style="enable-background:new 0 0 50 50;" xml:space="preserve">
<style type="text/css">
	.st0{fill:#8ED3B3;}
	.st1{fill:#43B581;}
</style>
<path class="st0" d="M36.3,2.59c0,0,19.09,13.03,11.84,31.32s-21.68,13.22-16.29,7.87s-6.36-8.97-13.89-15.91L36.28,2.59"/>
<path class="st1" d="M35.14,20.5c-4.02,5.12-9.7,7.68-14.09,6.76L5.73,46.78c-1.08,1.38-3.08,1.63-4.47,0.54c0,0,0,0,0,0
	c-1.39-1.07-1.65-3.07-0.58-4.46c0.01-0.01,0.01-0.02,0.02-0.02l15.24-19.49c-2.02-4.04-0.91-10.23,3.18-15.4
	c5.07-6.43,12.73-8.83,17.16-5.36S40.18,14.07,35.14,20.5z"/>
</svg>
