<?xml version="1.0" encoding="utf-8"?>
<!-- Generator: Adobe Illustrator 26.2.1, SVG Export Plug-In . SVG Version: 6.00 Build 0)  -->
<svg version="1.1" id="Слой_1" xmlns="http://www.w3.org/2000/svg" xmlns:xlink="http://www.w3.org/1999/xlink" x="0px" y="0px"
	 viewBox="0 0 50 50" style="enable-background:new 0 0 50 50;" xml:space="preserve">
<style type="text/css">
	.st0{fill:#FFEAC0;}
	.st1{fill:#FFD56C;}
	.st2{clip-path:url(#SVGID_00000099655954672186647850000006900847581715895699_);}
	.st3{fill:#FFFFFF;}
</style>
<path class="st0" d="M36.13,3.47c0,0,18.8,12.86,11.58,30.88s-21.33,13.01-15.97,7.69s-6.25-8.78-13.64-15.69L36.13,3.47"/>
<path class="st1" d="M35.04,21.18c-3.92,5.01-9.56,7.54-13.95,6.6L6.06,47.06c-1.09,1.4-2.99,1.55-4.39,0.47
	c-1.4-1.09-1.55-2.99-0.62-4.39l15.03-19.11C14.07,20.1,15.15,14,19.23,8.83c5.01-6.29,12.51-8.62,16.9-5.36S39.9,14.78,35.04,21.18
	z"/>
<g>
	<defs>
		<path id="SVGID_1_" d="M35.04,21.18c-3.92,5.01-9.56,7.54-13.95,6.6L6.06,47.06c-1.09,1.4-2.99,1.55-4.39,0.47
			c-1.4-1.09-1.55-2.99-0.62-4.39l15.03-19.11C14.07,20.1,15.15,14,19.23,8.83c5.01-6.29,12.51-8.62,16.9-5.36
			S39.9,14.78,35.04,21.18z"/>
	</defs>
	<clipPath id="SVGID_00000111910377285174012680000014904366001060397241_">
		<use xlink:href="#SVGID_1_"  style="overflow:visible;"/>
	</clipPath>
	<g style="clip-path:url(#SVGID_00000111910377285174012680000014904366001060397241_);">
		<path class="st3" d="M27.45-5.99l1.81,0.24l-7.72,58.58l-1.81-0.24L27.45-5.99z"/>
		<path class="st3" d="M30.49-6.6l3.97,0.52L26.74,52.5l-3.97-0.52L30.49-6.6z"/>
	</g>
</g>
</svg>
