<?xml version="1.0" encoding="utf-8"?>
<!-- Generator: Adobe Illustrator 26.2.1, SVG Export Plug-In . SVG Version: 6.00 Build 0)  -->
<svg version="1.1" id="Слой_1" xmlns="http://www.w3.org/2000/svg" xmlns:xlink="http://www.w3.org/1999/xlink" x="0px" y="0px"
	 viewBox="0 0 50 50" style="enable-background:new 0 0 50 50;" xml:space="preserve">
<style type="text/css">
	.st0{fill:#7289DA;}
</style>
<g>
	<path class="st0" d="M8.56,8.62c0,0,0.6-0.9,0.85-1.3c0.25-0.4-0.65-1.34-0.99-1.64c-0.35-0.3-0.9-0.15-0.9-0.15
		c-4.37,1.94-6.56,5.91-6.86,6.71c-0.3,0.79,0.76,1.66,1.54,2.09c0.36,0.2,0.93-0.24,1.28-0.56l0.12-0.12l0.18-0.19l0,0L15.69,25.3
		l1.62-1.62l2.99-2.99L8.55,8.64L8.56,8.62z"/>
	<path class="st0" d="M36.66,21.12l0.63-0.6l5.63,5.58c0.04,0.03,0.08,0.05,0.12,0.05c0.11,0,0.2-0.1,0.2-0.1s6.24-6.19,6.26-6.21
		c0.18-0.18,0-0.28,0-0.28l-4.81-4.84l-0.01,0.01l-0.66-0.65l0.37-0.35l0.79,0.09l-0.15-1.04l0.2-0.2l-0.3-1.51
		c-1.03-1.46-3.84-3.79-3.84-3.79L39.6,7.01l-0.15,0.2l-1.11-0.17l0.11,0.95l0.07,0.07l-0.33,0.33l-1.82-1.78
		c0,0-10.55-5.73-11.11-6c-0.32-0.15-0.55-0.24-0.77-0.24c-0.17,0-0.34,0.06-0.53,0.2c-0.45,0.31-0.18,0.95-0.18,0.95l6.56,12.12
		l1.31,1.3l-0.41,0.41l0,0l-0.15,0.15l-1.05-0.14l0.16,1.04l-0.3,0.3l-0.05-0.05c-0.05-0.05-0.12-0.07-0.18-0.07
		c-0.07,0-0.13,0.03-0.18,0.07c-0.1,0.1-0.1,0.26,0,0.36l0.05,0.05l-0.14,0.15l-0.04-0.04c-0.05-0.05-0.12-0.07-0.18-0.07
		c-0.07,0-0.13,0.03-0.18,0.07c-0.1,0.1-0.1,0.26,0,0.36l0.04,0.04l-2.76,2.77l-0.06-0.06c-0.05-0.05-0.12-0.07-0.18-0.07
		c-0.07,0-0.13,0.03-0.18,0.07c-0.1,0.1-0.1,0.26,0,0.36l0.07,0.06l-0.15,0.15l-0.05-0.05c-0.05-0.05-0.12-0.08-0.18-0.08
		c-0.07,0-0.13,0.03-0.18,0.08c-0.1,0.1-0.1,0.26,0,0.36l0.05,0.05l-0.36,0.36l-0.05,0.46l0.19,0.19l0,0l-0.23,0.23L10.04,37.36
		L9.85,37.2l-0.62,0.09l-0.35,0.35l-0.02-0.02c-0.05-0.05-0.12-0.08-0.18-0.08c-0.07,0-0.13,0.03-0.18,0.08
		c-0.1,0.1-0.1,0.26,0,0.36l0.03,0.03l-0.14,0.15l-0.01-0.01c-0.05-0.05-0.12-0.08-0.18-0.08c-0.07,0-0.13,0.03-0.18,0.08
		c-0.1,0.1-0.1,0.26,0,0.36l0.02,0.02L5.29,41.3l-0.06-0.06c-0.05-0.05-0.11-0.07-0.18-0.07c-0.07,0-0.13,0.02-0.18,0.07
		c-0.1,0.1-0.1,0.26,0,0.36l0.06,0.06l-0.14,0.15l-0.04-0.04c-0.05-0.05-0.12-0.07-0.18-0.07c-0.06,0-0.13,0.03-0.18,0.07
		c-0.1,0.1-0.1,0.26,0,0.36l0.05,0.05l-0.2,0.21L3.17,42.2l0.08,1.18l-0.33,0.34l0.29,1.59c0,0,0.44,1.38,1.35,2.3
		c0.88,0.89,2.23,1.32,2.29,1.36l1.52,0.27l0.38-0.37l1.05,0.17L9.62,48l0.32-0.31l0.15,0.15c0.05,0.05,0.11,0.07,0.18,0.07
		c0.07,0,0.13-0.03,0.18-0.07c0.1-0.1,0.1-0.26,0-0.36l-0.14-0.14l0.15-0.14l0.13,0.13c0.05,0.05,0.12,0.08,0.18,0.08
		c0.07,0,0.13-0.03,0.18-0.08c0.1-0.1,0.1-0.26,0-0.36l-0.12-0.13l2.77-2.73l0.12,0.12c0.05,0.05,0.12,0.07,0.18,0.07
		c0.07,0,0.13-0.02,0.18-0.07c0.1-0.1,0.1-0.26,0-0.36l-0.12-0.12l0.15-0.15l0.1,0.1c0.05,0.05,0.11,0.07,0.18,0.07
		c0.07,0,0.13-0.03,0.18-0.07c0.1-0.1,0.1-0.26,0-0.36l-0.1-0.1l0.31-0.3l0.11-0.66l-0.17-0.17l0,0l0.3-0.3l14.79-14.8l-0.01-0.01
		l0.29,0.3l0.46-0.05l0.42-0.42l0.07,0.07c0.05,0.05,0.12,0.07,0.18,0.07s0.13-0.03,0.18-0.07c0.1-0.1,0.1-0.26,0-0.36l-0.07-0.07
		l0.15-0.14l0.05,0.05c0.05,0.05,0.11,0.07,0.18,0.07c0.07,0,0.13-0.03,0.18-0.07c0.1-0.1,0.1-0.26,0-0.36l-0.05-0.05l2.76-2.77
		l0.07,0.07c0.05,0.05,0.11,0.07,0.18,0.07c0.07,0,0.13-0.03,0.18-0.07c0.1-0.1,0.1-0.26,0-0.36l-0.07-0.07l0.15-0.15l0.06,0.06
		c0.05,0.05,0.12,0.07,0.18,0.07s0.13-0.03,0.18-0.07c0.1-0.1,0.1-0.26,0-0.36l-0.06-0.06l0.31-0.31l1.03,0.16L36.66,21.12z"/>
	<polygon class="st0" points="38.71,37.84 32.15,32.87 30.98,31.67 26.46,36.19 27.6,37.28 31.87,43.69 37.63,50 44.27,43.8 	"/>
</g>
</svg>
