<?xml version="1.0" encoding="utf-8"?>
<!-- Generator: Adobe Illustrator 26.2.1, SVG Export Plug-In . SVG Version: 6.00 Build 0)  -->
<svg version="1.1" id="Слой_1" xmlns="http://www.w3.org/2000/svg" xmlns:xlink="http://www.w3.org/1999/xlink" x="0px" y="0px"
	 viewBox="0 0 50 50" style="enable-background:new 0 0 50 50;" xml:space="preserve">
<style type="text/css">
	.st0{fill:#AABFF2;}
	.st1{fill:#CBDAF7;}
	.st2{fill:#EF8843;}
	.st3{fill:#D0D9EA;}
	.st4{fill:#EBEFF7;}
	.st5{fill:#FC964B;}
	.st6{fill:#647096;}
</style>
<path class="st0" d="M33.83,32.46h-2.66c-3.19-0.04-5.74-2.66-5.71-5.85v-2.74c-0.02-1.27,1-2.32,2.27-2.34c0,0,0,0,0,0h12.53v-3.26
	H18c-2.02,4.55-4.09,9.27-4.77,11.13c-0.87,2.2-2.99,3.66-5.36,3.67v1.96c1.77,1.72,4.14,2.69,6.62,2.7h20.01
	c3.18-0.01,5.76-2.59,5.77-5.77v-0.41c-0.9,0.59-1.95,0.91-3.02,0.91H33.83z M20.42,28c-1.09,0-1.97-0.88-1.97-1.97
	c0-1.09,0.88-1.97,1.97-1.97c1.09,0,1.97,0.88,1.97,1.97c0,0.02,0,0.04,0,0.06C22.36,27.16,21.48,28.01,20.42,28z"/>
<path d="M20.42,24.06c-1.09,0-1.97,0.88-1.97,1.97c0,1.09,0.88,1.97,1.97,1.97c1.09,0,1.97-0.88,1.97-1.97
	C22.39,24.94,21.51,24.06,20.42,24.06z"/>
<path class="st1" d="M40.66,21.53H27.73c-1.27,0.02-2.29,1.06-2.27,2.34c0,0,0,0,0,0v2.74c-0.04,3.19,2.52,5.81,5.71,5.85h6.08
	c1.07,0,2.12-0.32,3.02-0.91c0.06-0.03,0.11-0.06,0.16-0.1c1.57-1.09,2.51-2.86,2.53-4.77v-2.81
	C42.96,22.59,41.94,21.55,40.66,21.53z M35,29.91h-2.56c-0.53,0.07-1.02-0.31-1.09-0.84c-0.07-0.53,0.31-1.02,0.84-1.09
	c0.08-0.01,0.17-0.01,0.25,0H35c0.53-0.07,1.02,0.31,1.09,0.84c0.07,0.53-0.31,1.02-0.84,1.09C35.17,29.92,35.08,29.92,35,29.91z
	 M39.54,29.91H38.5c-0.53,0.07-1.02-0.31-1.09-0.84c-0.07-0.53,0.31-1.02,0.84-1.09c0.08-0.01,0.17-0.01,0.25,0h0.97
	c0.53,0.07,0.91,0.55,0.84,1.09c-0.06,0.44-0.4,0.78-0.84,0.84H39.54z"/>
<path class="st0" d="M35,27.99h-2.56c-0.53-0.07-1.02,0.31-1.09,0.84c-0.07,0.53,0.31,1.02,0.84,1.09c0.08,0.01,0.17,0.01,0.25,0H35
	c0.53,0.07,1.02-0.31,1.09-0.84c0.07-0.53-0.31-1.02-0.84-1.09C35.17,27.98,35.08,27.98,35,27.99z M39.47,27.99H38.5
	c-0.53-0.07-1.02,0.31-1.09,0.84c-0.07,0.53,0.31,1.02,0.84,1.09c0.08,0.01,0.17,0.01,0.25,0h0.97c0.53-0.07,0.91-0.55,0.84-1.09
	C40.25,28.39,39.91,28.05,39.47,27.99z"/>
<path class="st2" d="M3.56,31.46c-0.24-0.11-0.48-0.24-0.7-0.38v9.19L5.33,42l2.47-1.73v-7.24C6.23,33.08,4.71,32.51,3.56,31.46z"/>
<path class="st3" d="M11.61,28.34c-1.23,3.06-4.7,4.54-7.76,3.31c-0.1-0.04-0.19-0.08-0.29-0.12c1.15,1.06,2.67,1.63,4.23,1.59
	c2.37-0.02,4.49-1.47,5.36-3.67c0.72-1.81,2.78-6.54,4.77-11.13h-2C15.92,18.3,13.15,24.41,11.61,28.34z"/>
<path class="st4" d="M23.01,7.01l1.35,0.11L23.01,7.01z M18.02,7.19C19,7.07,20,7.01,20.99,7.01C20,7.01,19,7.07,18.02,7.19z
	 M34.73,13.85c1.92,0.04,3.82,0.23,5.71,0.57c-1.26-1.48-6.08-6.36-16.08-7.24C31.6,8.92,34.27,13.04,34.73,13.85z M11.61,28.34
	c1.54-3.93,4.31-10.07,4.31-10.07s4.9-3.71,14.97-4.34c-3.5-4.77-9.27-6.36-12.85-6.74C5.76,8.51,0.01,17.83,0.01,25.27
	c-0.15,2.3,0.93,4.51,2.85,5.8c2.79,1.78,6.5,0.95,8.28-1.84C11.32,28.95,11.48,28.65,11.61,28.34z M1.24,23.82
	c0.12-2.47,2.19-4.39,4.66-4.33c2.42,0.53,3.96,2.9,3.47,5.33c-0.1,2.44-2.13,4.36-4.58,4.33c-2.45-0.49-4.04-2.86-3.55-5.31
	C1.24,23.83,1.24,23.83,1.24,23.82z"/>
<path class="st5" d="M30.85,13.93c0.73,0,1.48,0,2.26-0.1h1.59c-0.46-0.81-3.18-4.93-10.37-6.66l-1.32-0.16h-2.02
	C20,7.01,19,7.07,18.02,7.19C21.58,7.62,27.35,9.08,30.85,13.93z"/>
<path class="st6" d="M33.11,13.83c-0.78,0-1.59,0-2.26,0.1c-10.07,0.64-14.93,4.34-14.93,4.34H50c-2.82-2.04-6.1-3.36-9.54-3.85
	c-1.89-0.34-3.79-0.53-5.71-0.57L33.11,13.83z M4.79,29.15c2.45,0.04,4.48-1.88,4.58-4.33c0.49-2.42-1.05-4.8-3.47-5.33
	c-2.47-0.06-4.54,1.86-4.66,4.33c-0.5,2.44,1.08,4.83,3.53,5.32C4.77,29.15,4.78,29.15,4.79,29.15z M1.99,24
	c0.08-1.67,1.49-2.96,3.16-2.88c0.01,0,0.02,0,0.02,0c1.57,0.39,2.56,1.96,2.23,3.55c-0.08,1.64-1.46,2.92-3.1,2.86
	C2.69,27.18,1.66,25.61,1.99,24z"/>
<path class="st5" d="M4.29,27.53c1.64,0.05,3.02-1.22,3.1-2.86c0.33-1.61-0.7-3.19-2.31-3.55c-1.65-0.05-3.02,1.23-3.1,2.88
	C1.66,25.61,2.69,27.18,4.29,27.53z"/>
</svg>
