<?xml version="1.0" encoding="utf-8"?>
<!-- Generator: Adobe Illustrator 26.2.1, SVG Export Plug-In . SVG Version: 6.00 Build 0)  -->
<svg version="1.1" id="Слой_1" xmlns="http://www.w3.org/2000/svg" xmlns:xlink="http://www.w3.org/1999/xlink" x="0px" y="0px"
	 viewBox="0 0 50 50" style="enable-background:new 0 0 50 50;" xml:space="preserve">
<style type="text/css">
	.st0{fill:#FF6BFA;}
	.st1{fill:#FFDEF9;}
	.st2{fill:#E34BD1;}
	.st3{fill:#FFB0FF;}
	.st4{fill:#FFC0FF;}
	.st5{fill:#FFFFFF;}
</style>
<path class="st0" d="M45.04,0H5.05L0.09,4.96v39.99l4.96,4.96h39.99L50,44.95V4.96L45.04,0z M40.64,40.55H9.45V9.36h31.2V40.55z"/>
<path class="st1" d="M35,9.3L9.38,34.88V9.3H35z"/>
<path class="st1" d="M40.7,9.3v6.61L16,40.62H9.38v-0.03L40.7,9.3z"/>
<path class="st1" d="M21.74,40.62l18.97-19v19H21.74z"/>
<path class="st2" d="M45.04,0l-4.37,9.33L50,4.96L45.04,0z"/>
<path class="st2" d="M0.09,44.95l9.33-4.37l-4.37,9.33L0.09,44.95z"/>
<path class="st3" d="M5.05,0l4.37,9.33h31.26L45.04,0H5.05z"/>
<path class="st4" d="M50,44.95l-9.33-4.37l4.37,9.33L50,44.95z"/>
<path class="st5" d="M40.67,9.33H35L9.38,34.88v5.71L40.67,9.33z"/>
<path class="st5" d="M40.7,15.91v5.71l-18.97,19H16L40.7,15.91z"/>
</svg>
