<?xml version="1.0" encoding="utf-8"?>
<!-- Generator: Adobe Illustrator 26.2.1, SVG Export Plug-In . SVG Version: 6.00 Build 0)  -->
<svg version="1.1" id="Слой_1" xmlns="http://www.w3.org/2000/svg" xmlns:xlink="http://www.w3.org/1999/xlink" x="0px" y="0px"
	 viewBox="0 0 24 24" style="enable-background:new 0 0 24 24;" xml:space="preserve">
<style type="text/css">
	.st0{fill:#FFD836;}
	.st1{fill:#D4E4FF;}
	.st2{fill:#FFDEF9;}
	.st3{fill:#FFFFFF;}
	.st4{fill:#FF73FA;}
	.st5{fill:#FFC0FF;}
	.st6{fill:#E655D4;}
</style>
<path class="st0" d="M4.51,1.97l0.52,1.07C5.07,3.1,5.08,3.16,5.07,3.22C5.06,3.28,5.03,3.34,4.98,3.38
	c-0.04,0.04-0.1,0.07-0.16,0.08c-0.06,0.01-0.12,0-0.18-0.03L3.57,2.91C3.53,2.89,3.49,2.88,3.44,2.88c-0.04,0-0.09,0.01-0.13,0.03
	L2.24,3.44C2.19,3.46,2.13,3.47,2.06,3.47C2,3.46,1.95,3.43,1.9,3.38c-0.04-0.04-0.07-0.1-0.08-0.16c-0.01-0.06,0-0.12,0.03-0.18
	l0.52-1.07C2.39,1.93,2.4,1.89,2.4,1.84S2.39,1.75,2.37,1.71L1.85,0.64C1.83,0.59,1.82,0.53,1.84,0.47
	c0.01-0.06,0.04-0.11,0.09-0.15c0.04-0.04,0.1-0.07,0.15-0.08c0.06-0.01,0.12,0,0.17,0.02l1.07,0.52C3.36,0.81,3.4,0.82,3.44,0.82
	s0.09-0.01,0.13-0.03l1.07-0.52C4.7,0.24,4.76,0.23,4.82,0.24c0.06,0.01,0.12,0.04,0.16,0.08c0.04,0.04,0.07,0.1,0.08,0.16
	c0.01,0.06,0,0.12-0.03,0.18L4.51,1.74C4.5,1.78,4.49,1.81,4.49,1.85C4.49,1.89,4.5,1.93,4.51,1.97z"/>
<path class="st1" d="M18.84,23.75h0.01c0.31,0,0.56-0.25,0.56-0.56v-1.14c0-0.31-0.25-0.56-0.56-0.56h-0.01
	c-0.31,0-0.56,0.25-0.56,0.56v1.14C18.28,23.5,18.53,23.75,18.84,23.75z"/>
<path class="st1" d="M22.25,20.37v-0.01c0-0.31-0.25-0.56-0.56-0.56h-1.14c-0.31,0-0.56,0.25-0.56,0.56v0.01
	c0,0.31,0.25,0.56,0.56,0.56h1.14C22,20.93,22.25,20.68,22.25,20.37z"/>
<g>
	<path class="st2" d="M16.42,7.21l-11,6.35V8.12l6.3-3.62L16.42,7.21z"/>
	<path class="st2" d="M18,8.12v1.94l-10.9,6.3l-1.67-0.98L18,8.12z"/>
	<path class="st2" d="M8.67,17.25L18,11.87v3.51l-6.28,3.65L8.67,17.25z"/>
</g>
<path class="st3" d="M18,8.12l-1.58-0.91l-11,6.35v1.82L18,8.12z"/>
<path class="st3" d="M18,10.06v1.81l-9.33,5.38L7.1,16.36L18,10.06z"/>
<path class="st4" d="M11.71,0.65L2.09,6.2v11.1l9.62,5.56l9.62-5.56V6.2L11.71,0.65z M17.99,15.39l-6.28,3.62l-6.29-3.62V8.13
	l6.29-3.64l6.28,3.64V15.39z"/>
<path class="st1" d="M18.84,19.23h0.01c0.31,0,0.56-0.25,0.56-0.56v-1.14c0-0.31-0.25-0.56-0.56-0.56h-0.01
	c-0.31,0-0.56,0.25-0.56,0.56v1.14C18.28,18.98,18.53,19.23,18.84,19.23z"/>
<path class="st1" d="M17.72,20.37v-0.01c0-0.31-0.25-0.56-0.56-0.56h-1.14c-0.31,0-0.56,0.25-0.56,0.56v0.01
	c0,0.31,0.25,0.56,0.56,0.56h1.14C17.47,20.93,17.72,20.68,17.72,20.37z"/>
<path class="st5" d="M11.71,0.64v3.85L18,8.12l3.33-1.91L11.71,0.64z"/>
<path class="st6" d="M5.42,15.39L2.09,17.3l9.62,5.56v-3.85L5.42,15.39z"/>
</svg>
