<?xml version="1.0" encoding="utf-8"?>
<!-- Generator: Adobe Illustrator 26.2.1, SVG Export Plug-In . SVG Version: 6.00 Build 0)  -->
<svg version="1.1" id="Слой_1" xmlns="http://www.w3.org/2000/svg" xmlns:xlink="http://www.w3.org/1999/xlink" x="0px" y="0px"
	 viewBox="0 0 50 50" style="enable-background:new 0 0 50 50;" xml:space="preserve">
<style type="text/css">
	.st0{fill:#FFD836;}
	.st1{fill:#FF73FA;}
	.st2{fill:#FFC0FF;}
	.st3{fill:#E655D4;}
	.st4{fill:#D4E4FF;}
	.st5{fill:#FFDEF9;}
	.st6{fill:#FFFFFF;}
</style>
<path class="st0" d="M10.1,4.38l1.1,2.26c0.06,0.12,0.08,0.25,0.06,0.38s-0.08,0.25-0.17,0.34C11,7.45,10.88,7.51,10.75,7.54
	c-0.13,0.02-0.26,0-0.38-0.06l-2.26-1.1C8.03,6.33,7.94,6.31,7.84,6.31S7.66,6.33,7.57,6.37l-2.26,1.1C5.2,7.53,5.07,7.56,4.94,7.54
	C4.81,7.51,4.69,7.45,4.6,7.36C4.5,7.27,4.44,7.15,4.42,7.02s0-0.26,0.06-0.38l1.1-2.26C5.63,4.3,5.65,4.21,5.65,4.11
	S5.63,3.93,5.59,3.84l-1.1-2.26C4.44,1.47,4.43,1.35,4.46,1.23C4.49,1.11,4.55,1,4.64,0.92s0.2-0.14,0.32-0.16
	c0.12-0.02,0.24,0,0.36,0.05l2.26,1.1c0.08,0.04,0.18,0.06,0.27,0.06s0.18-0.02,0.27-0.06l2.26-1.1c0.12-0.06,0.25-0.08,0.38-0.06
	c0.13,0.02,0.25,0.08,0.34,0.17c0.09,0.09,0.15,0.21,0.17,0.34c0.02,0.13,0,0.26-0.06,0.38L10.1,3.9c-0.03,0.08-0.05,0.16-0.05,0.24
	S10.07,4.31,10.1,4.38z"/>
<path class="st1" d="M25.26,0L10.59,14.68v20.65L25.26,50l14.68-14.68V14.68L25.26,0z M32.6,32.26l-7.34,7.37l-7.34-7.34V17.72
	l7.34-7.34l7.34,7.34V32.26z"/>
<path class="st2" d="M25.26,0v10.38l7.34,7.34l7.34-3.04L25.26,0z"/>
<path class="st3" d="M17.92,32.28l-7.34,3.04L25.26,50V39.62L17.92,32.28z"/>
<g>
	<path class="st4" d="M36.61,40.32h0.03c0.65,0,1.18-0.53,1.18-1.18v-2.39c0-0.65-0.53-1.18-1.18-1.18h-0.03
		c-0.65,0-1.18,0.53-1.18,1.18v2.39C35.42,39.79,35.95,40.32,36.61,40.32z"/>
	<path class="st4" d="M36.61,49.87h0.03c0.65,0,1.18-0.53,1.18-1.18v-2.39c0-0.65-0.53-1.18-1.18-1.18h-0.03
		c-0.65,0-1.18,0.53-1.18,1.18v2.39C35.42,49.34,35.95,49.87,36.61,49.87z"/>
	<path class="st4" d="M34.24,42.72v-0.03c0-0.65-0.53-1.18-1.18-1.18h-2.39c-0.65,0-1.18,0.53-1.18,1.18v0.03
		c0,0.65,0.53,1.18,1.18,1.18h2.39C33.71,43.9,34.24,43.37,34.24,42.72z"/>
	<path class="st4" d="M43.76,42.72v-0.03c0-0.65-0.53-1.18-1.18-1.18h-2.39c-0.65,0-1.18,0.53-1.18,1.18v0.03
		c0,0.65,0.53,1.18,1.18,1.18h2.39C43.23,43.9,43.76,43.37,43.76,42.72z"/>
</g>
<path class="st5" d="M17.92,17.72v14.57l7.34,7.34l7.34-7.34V17.72l-7.34-7.34L17.92,17.72z"/>
<path class="st6" d="M32.58,17.71v0.03l-14.6,14.6l-0.03-0.03v-3.95L30.59,15.7L32.58,17.71z"/>
<path class="st6" d="M32.58,23.23v4.03l-9.84,9.84l-2.02-2.02L32.58,23.23z"/>
</svg>
