<?xml version="1.0" encoding="utf-8"?>
<!-- Generator: Adobe Illustrator 26.2.1, SVG Export Plug-In . SVG Version: 6.00 Build 0)  -->
<svg version="1.1" id="Слой_1" xmlns="http://www.w3.org/2000/svg" xmlns:xlink="http://www.w3.org/1999/xlink" x="0px" y="0px"
	 viewBox="0 0 50 50" style="enable-background:new 0 0 50 50;" xml:space="preserve">
<style type="text/css">
	.st0{fill:#FAA61A;}
</style>
<path class="st0" d="M44.83,16.89c0.81-0.49,1.84-0.44,2.6,0.13c0.76,0.57,1.1,1.53,0.88,2.45L43.62,38.2
	c-0.26,1.04-1.2,1.77-2.27,1.77H8.57c-1.07,0-2.01-0.73-2.27-1.77L1.61,19.47c-0.23-0.92,0.12-1.88,0.88-2.45
	c0.76-0.56,1.79-0.61,2.6-0.13l9.79,5.88l8.13-12.19c0.06-0.08,0.13-0.14,0.21-0.19c0.05-0.03,0.09-0.07,0.14-0.11L21.1,8.02
	c-0.45-0.45-0.45-1.2,0-1.66l3.03-3.03c0.45-0.45,1.2-0.45,1.66,0l3.03,3.03c0.45,0.45,0.45,1.2,0,1.66l-2.25,2.26
	c0.04,0.04,0.09,0.07,0.14,0.11c0.08,0.05,0.15,0.11,0.21,0.19l8.13,12.19L44.83,16.89z M6.23,42.32h37.46V47H6.23V42.32z"/>
</svg>
