<?xml version="1.0" encoding="utf-8"?>
<!-- Generator: Adobe Illustrator 26.2.1, SVG Export Plug-In . SVG Version: 6.00 Build 0)  -->
<svg version="1.1" id="Слой_1" xmlns="http://www.w3.org/2000/svg" xmlns:xlink="http://www.w3.org/1999/xlink" x="0px" y="0px"
	 viewBox="0 0 50 50" style="enable-background:new 0 0 50 50;" xml:space="preserve">
<style type="text/css">
	.st0{fill:#FFD836;}
	.st1{fill:#FFDEF9;}
	.st2{fill:#FF73FA;}
	.st3{fill:#FFB0FF;}
	.st4{fill:#E655D4;}
	.st5{fill:#D4E4FF;}
	.st6{fill:#FFFFFF;}
</style>
<path class="st0" d="M4.02,9.8l-1.1,2.25c-0.13,0.11-0.21,0.27-0.22,0.43c-0.01,0.17,0.04,0.33,0.15,0.46
	c0.11,0.13,0.27,0.21,0.43,0.22c0.17,0.01,0.33-0.04,0.46-0.15L6,11.95c0.08-0.04,0.18-0.06,0.27-0.06c0.09,0,0.18,0.02,0.27,0.06
	l2.25,1.07c0.12,0.06,0.25,0.08,0.38,0.06C9.3,13.06,9.42,13,9.51,12.91c0.09-0.09,0.15-0.21,0.17-0.34c0.02-0.13,0-0.26-0.06-0.38
	L8.52,9.8C8.48,9.73,8.46,9.64,8.46,9.55c0-0.09,0.02-0.18,0.06-0.25l1.1-2.25C9.68,6.93,9.7,6.8,9.68,6.67
	C9.66,6.54,9.6,6.42,9.51,6.32C9.42,6.23,9.3,6.17,9.17,6.15c-0.13-0.02-0.26,0-0.38,0.06L6.54,7.29C6.45,7.33,6.36,7.35,6.27,7.35
	C6.18,7.35,6.09,7.33,6,7.29L3.75,6.21C3.64,6.15,3.5,6.13,3.37,6.15C3.24,6.17,3.12,6.23,3.03,6.32C2.94,6.42,2.88,6.54,2.86,6.67
	c-0.02,0.13,0,0.26,0.06,0.38l1.1,2.25c0.04,0.08,0.06,0.17,0.06,0.25C4.08,9.64,4.06,9.73,4.02,9.8z"/>
<path class="st1" d="M47.49,18.75l-14.77-4.64L23.74,1.5l-8.95,12.62L0,18.75l9.25,12.43L9.08,46.65l14.66-4.93l14.69,4.93
	l-0.16-15.46L47.49,18.75z"/>
<path class="st2" d="M47.49,18.75l-14.77-4.64L23.8,1.5l-9,12.62L0,18.75l9.25,12.43L9.08,46.65l14.71-4.93l14.69,4.93l-0.16-15.46
	L47.49,18.75z M32.88,27.2l-1.34,1.8v2.25v6.06l-5.76-1.93l-1.98-0.72l-2.14,0.72l-5.9,1.93v-6.06V29.1l-1.34-1.8l-3.43-4.98
	l5.79-1.82l2.17-0.67l1.31-1.85l3.54-4.96l3.51,4.93l1.31,1.82l2.14,0.67l5.79,1.82L32.88,27.2z"/>
<path class="st3" d="M23.74,1.5v11.58l4.82,6.75l7.93,2.49l10.99-3.56l-14.77-4.64L23.74,1.5z"/>
<path class="st4" d="M9.25,31.19l6.7-2.2l-0.08,8.31l7.85-2.65v7.07L9.08,46.65L9.25,31.19z"/>
<path class="st3" d="M31.54,28.99l6.73,2.2l0.16,15.46l-6.81-9.35L31.54,28.99z"/>
<g>
	<path class="st5" d="M42.58,37.51h0.03c0.65,0,1.18-0.53,1.18-1.18v-2.39c0-0.65-0.53-1.18-1.18-1.18h-0.03
		c-0.65,0-1.18,0.53-1.18,1.18v2.39C41.4,36.99,41.93,37.51,42.58,37.51z"/>
	<path class="st5" d="M42.58,47h0.03c0.65,0,1.18-0.53,1.18-1.18v-2.39c0-0.65-0.53-1.18-1.18-1.18h-0.03
		c-0.65,0-1.18,0.53-1.18,1.18v2.39C41.4,46.47,41.93,47,42.58,47z"/>
	<path class="st5" d="M40.22,39.9v-0.03c0-0.65-0.53-1.18-1.18-1.18h-2.39c-0.65,0-1.18,0.53-1.18,1.18v0.03
		c0,0.65,0.53,1.18,1.18,1.18h2.39C39.7,41.08,40.22,40.55,40.22,39.9z"/>
	<path class="st5" d="M49.74,39.9v-0.03c0-0.65-0.53-1.18-1.18-1.18h-2.39c-0.65,0-1.18,0.53-1.18,1.18v0.03
		c0,0.65,0.53,1.18,1.18,1.18h2.39C49.21,41.08,49.74,40.55,49.74,39.9z"/>
</g>
<path class="st6" d="M28.57,19.83l-12.62,9.17l-1.61-2.2l12.65-9.17L28.57,19.83z"/>
<path class="st6" d="M36.5,22.32L15.86,37.3v-3.38L33.26,21.3L36.5,22.32z"/>
</svg>
