<?xml version="1.0" encoding="utf-8"?>
<!-- Generator: Adobe Illustrator 26.2.1, SVG Export Plug-In . SVG Version: 6.00 Build 0)  -->
<svg version="1.1" id="Слой_1" xmlns="http://www.w3.org/2000/svg" xmlns:xlink="http://www.w3.org/1999/xlink" x="0px" y="0px"
	 viewBox="0 0 50 50" style="enable-background:new 0 0 50 50;" xml:space="preserve">
<style type="text/css">
	.st0{fill:#FFD836;}
	.st1{fill:#FF73FA;}
	.st2{fill:#FFC0FF;}
	.st3{fill:#E655D4;}
	.st4{fill:#FFDEF9;}
	.st5{fill:#FFFFFF;}
	.st6{fill:#D4E4FF;}
</style>
<path class="st0" d="M1.33,7.47L0.23,9.79c-0.07,0.06-0.12,0.12-0.16,0.2C0.03,10.07,0.01,10.16,0,10.24s0,0.17,0.03,0.25
	c0.03,0.08,0.07,0.16,0.13,0.22c0.11,0.13,0.27,0.21,0.45,0.23c0.09,0.01,0.17,0,0.25-0.03c0.08-0.03,0.16-0.07,0.22-0.13l2.32-1.11
	c0.09-0.04,0.18-0.06,0.28-0.06c0.1,0,0.19,0.02,0.28,0.06l2.32,1.11c0.12,0.06,0.26,0.08,0.39,0.06c0.13-0.02,0.26-0.08,0.35-0.18
	c0.1-0.1,0.16-0.22,0.18-0.35c0.02-0.13,0-0.27-0.06-0.39L6.03,7.61C5.99,7.53,5.97,7.44,5.97,7.35s0.02-0.18,0.06-0.26l1.11-2.32
	C7.2,4.64,7.22,4.51,7.2,4.37C7.18,4.24,7.12,4.12,7.02,4.02c-0.1-0.1-0.22-0.16-0.35-0.18c-0.13-0.02-0.27,0-0.39,0.06L3.85,4.87
	C3.76,4.92,3.67,4.94,3.57,4.94c-0.1,0-0.19-0.02-0.28-0.06L1.08,3.77C0.97,3.72,0.83,3.7,0.71,3.73C0.58,3.75,0.46,3.81,0.37,3.91
	C0.28,4,0.22,4.12,0.2,4.25c-0.02,0.13,0,0.26,0.05,0.38l1.11,2.32C1.4,7.03,1.42,7.12,1.41,7.21C1.41,7.3,1.38,7.39,1.33,7.47z"/>
<path class="st0" d="M42.29,42.62l0.86,2.43c0.04,0.13,0.12,0.24,0.23,0.33c0.11,0.08,0.24,0.12,0.38,0.12s0.27-0.04,0.38-0.12
	c0.11-0.08,0.19-0.2,0.23-0.33l0.83-2.43c0.03-0.09,0.09-0.17,0.16-0.24c0.07-0.07,0.16-0.12,0.25-0.14l2.43-0.86
	c0.12-0.05,0.22-0.13,0.3-0.23c0.07-0.11,0.11-0.23,0.11-0.36c0-0.13-0.04-0.25-0.11-0.36c-0.07-0.11-0.18-0.19-0.3-0.23l-2.43-0.86
	c-0.09-0.03-0.18-0.08-0.25-0.15c-0.07-0.07-0.13-0.15-0.17-0.24l-0.83-2.43c-0.04-0.13-0.12-0.24-0.23-0.33
	c-0.11-0.08-0.24-0.12-0.38-0.12s-0.27,0.04-0.38,0.12c-0.11,0.08-0.19,0.2-0.23,0.33l-0.86,2.43c-0.03,0.09-0.08,0.17-0.15,0.24
	c-0.07,0.07-0.15,0.12-0.24,0.15l-2.43,0.86c-0.12,0.05-0.22,0.13-0.3,0.23c-0.07,0.11-0.11,0.23-0.11,0.36
	c0,0.13,0.04,0.25,0.11,0.36c0.07,0.11,0.18,0.19,0.3,0.23l2.43,0.86c0.09,0.03,0.18,0.07,0.24,0.14
	C42.22,42.45,42.26,42.53,42.29,42.62z"/>
<path class="st1" d="M42.68,7.69H13.74l-7.13,7.21H50L42.68,7.69z"/>
<path class="st1" d="M6.5,14.91l21.69,32l21.69-32L6.5,14.91z"/>
<path class="st2" d="M13.74,7.69L6.5,14.91h14.48L13.74,7.69z"/>
<path class="st3" d="M28.2,7.69l-7.21,7.21h14.45L28.2,7.69z"/>
<path class="st2" d="M42.68,7.69l-7.24,7.21h14.45L42.68,7.69z"/>
<path class="st4" d="M35.44,14.91V7.69h7.24L35.44,14.91z"/>
<path class="st2" d="M35.44,14.91l-7.24,32l-7.21-32L35.44,14.91z"/>
<path class="st5" d="M35.44,14.91v0.03l-11.8,11.77l-0.69-3.07l8.71-8.73H35.44z"/>
<path class="st5" d="M33.36,24.08l-1.11,4.89l-6.6,6.6l-0.72-3.07L33.36,24.08z"/>
<g>
	<path class="st6" d="M9.49,30.99H9.46c-0.67,0-1.22,0.54-1.22,1.22v2.46c0,0.67,0.54,1.22,1.22,1.22h0.03
		c0.67,0,1.22-0.54,1.22-1.22v-2.46C10.7,31.53,10.16,30.99,9.49,30.99z"/>
	<path class="st6" d="M9.49,40.77H9.46c-0.67,0-1.22,0.54-1.22,1.22v2.46c0,0.67,0.54,1.22,1.22,1.22h0.03
		c0.67,0,1.22-0.54,1.22-1.22v-2.46C10.7,41.32,10.16,40.77,9.49,40.77z"/>
	<path class="st6" d="M16.84,38.37v-0.03c0-0.67-0.54-1.22-1.22-1.22h-2.46c-0.67,0-1.22,0.54-1.22,1.22v0.03
		c0,0.67,0.54,1.22,1.22,1.22h2.46C16.29,39.58,16.84,39.04,16.84,38.37z"/>
	<path class="st6" d="M7.03,38.37v-0.03c0-0.67-0.54-1.22-1.22-1.22H3.35c-0.67,0-1.22,0.54-1.22,1.22v0.03
		c0,0.67,0.54,1.22,1.22,1.22h2.46C6.48,39.58,7.03,39.04,7.03,38.37z"/>
</g>
</svg>
