<?xml version="1.0" encoding="utf-8"?>
<!-- Generator: Adobe Illustrator 26.2.1, SVG Export Plug-In . SVG Version: 6.00 Build 0)  -->
<svg version="1.1" id="Слой_1" xmlns="http://www.w3.org/2000/svg" xmlns:xlink="http://www.w3.org/1999/xlink" x="0px" y="0px"
	 viewBox="0 0 50 50" style="enable-background:new 0 0 50 50;" xml:space="preserve">
<style type="text/css">
	.st0{fill:#FF6BFA;}
	.st1{fill:#FFDEF9;}
	.st2{fill:#FFB0FF;}
	.st3{fill:#E34BD1;}
	.st4{fill:#FFFFFF;}
</style>
<path class="st0" d="M25.39,0.03L3.75,12.51v24.97L25.39,50l21.64-12.51V12.51L25.39,0.03z M39.54,33.18l-14.15,8.15l-14.12-8.15
	V16.85l14.12-8.18l14.15,8.18V33.18z"/>
<path class="st1" d="M35.98,14.78L11.24,29.08V16.82l14.12-8.15L35.98,14.78z"/>
<path class="st1" d="M39.54,16.82v4.36L15.06,35.36l-3.79-2.21L39.54,16.82z"/>
<path class="st1" d="M18.56,37.37l20.98-12.11v7.89l-14.18,8.21L18.56,37.37z"/>
<path class="st2" d="M25.39,0v8.67l14.15,8.15l7.49-4.31L25.39,0z"/>
<path class="st3" d="M11.24,33.18l-7.49,4.31L25.39,50v-8.67L11.24,33.18z"/>
<path class="st4" d="M39.54,16.82l-3.56-2.04L11.24,29.08v4.1L39.54,16.82z"/>
<path class="st4" d="M39.54,21.18v4.08L18.56,37.37l-3.5-2.01L39.54,21.18z"/>
</svg>
